<svg width="1471" height="275" viewBox="0 0 1471 275" fill="none" xmlns="http://www.w3.org/2000/svg">
<path d="M124.397 70.6305C124.397 77.4579 129.932 82.9927 136.759 82.9927H153.479C160.307 82.9927 165.841 77.4579 165.841 70.6305V41.5617H207.338V83.058H178.255C171.428 83.058 165.893 88.5928 165.893 95.4203V153.399C165.893 160.226 171.428 165.761 178.255 165.761H207.327V207.257H165.831V178.184C165.831 171.357 160.296 165.822 153.469 165.822H136.759C129.932 165.822 124.397 171.357 124.397 178.184V248.978H82.9006V178.184C82.9006 171.357 77.3658 165.822 70.5383 165.822H53.8586C47.0311 165.822 41.4963 171.357 41.4963 178.184V207.113H0V165.617H28.9856C35.813 165.617 41.3478 160.082 41.3478 153.255V95.5213C41.3478 88.6938 35.813 83.1591 28.9856 83.1591H0.0742783V41.6627H41.5706V70.6305C41.5706 77.4579 47.1054 82.9927 53.9328 82.9927H70.5384C77.3658 82.9927 82.9006 77.4579 82.9006 70.6305V0H124.397V70.6305Z" fill="#141717"/>
<path d="M435.126 0.000366211V56.0698H429.65C426.364 43.1347 422.765 33.8507 418.801 28.1655C414.837 22.4803 409.36 17.9948 402.476 14.6567C398.616 12.8311 391.835 11.8923 382.134 11.8923H366.695V171.703C366.695 182.291 367.269 188.915 368.469 191.575C369.616 194.235 371.911 196.53 375.354 198.512C378.744 200.494 383.438 201.485 389.332 201.485H396.217V207.118H287.677V201.485H294.561C300.56 201.485 305.41 200.39 309.061 198.252C311.721 196.843 313.808 194.392 315.32 190.897C316.416 188.446 316.989 182.031 316.989 171.651V11.9445H302.02C288.042 11.9445 277.923 14.9174 271.612 20.8113C262.745 29.0522 257.164 40.8398 254.817 56.122H249.028V0.000366211H435.126Z" fill="#141717"/>
<path d="M471.743 64.3011V96.691C481.236 81.9304 489.529 72.1248 496.674 67.2741C503.82 62.4234 510.705 60.0242 517.329 60.0242C523.014 60.0242 527.604 61.7976 530.994 65.2921C534.384 68.7867 536.106 73.7938 536.106 80.2092C536.106 87.0419 534.437 92.3098 531.151 96.1173C527.865 99.8726 523.849 101.75 519.154 101.75C513.73 101.75 509.088 100.029 505.072 96.5345C501.056 93.04 498.761 91.1101 498.031 90.745C496.987 90.1192 495.84 89.8062 494.536 89.8062C491.563 89.8062 488.799 90.9015 486.139 93.1443C481.966 96.5867 478.784 101.542 476.646 107.957C473.36 117.815 471.743 128.716 471.743 140.66V173.519L471.9 182.073C471.9 187.863 472.265 191.618 472.995 193.235C474.195 195.999 476.02 197.981 478.419 199.285C480.819 200.537 484.835 201.371 490.572 201.632V207.109H413.431V201.632C419.638 201.111 423.862 199.442 426.053 196.521C428.244 193.6 429.339 185.933 429.339 173.519V94.5004C429.339 86.3638 428.922 81.148 428.139 78.9053C427.096 76.0366 425.636 73.9503 423.706 72.6463C421.776 71.3424 418.334 70.4036 413.483 69.882V64.249H471.847L471.743 64.3011Z" fill="#141717"/>
<path d="M614.193 186.103C596.772 201.489 581.125 209.156 567.303 209.156C559.167 209.156 552.386 206.496 546.962 201.124C541.537 195.752 538.877 189.076 538.877 181.043C538.877 170.143 543.571 160.337 552.96 151.627C562.348 142.916 582.742 131.337 614.245 116.837V102.494C614.245 91.6974 613.671 84.9169 612.472 82.1004C611.324 79.2839 609.081 76.8325 605.848 74.7462C602.562 72.6599 598.911 71.6167 594.842 71.6167C588.218 71.6167 582.794 73.0771 578.517 76.0501C575.857 77.8756 574.553 80.0141 574.553 82.4655C574.553 84.604 575.961 87.264 578.83 90.3935C582.69 94.7747 584.619 98.9995 584.619 103.068C584.619 108.075 582.742 112.3 579.039 115.846C575.335 119.341 570.433 121.114 564.434 121.114C558.019 121.114 552.647 119.184 548.318 115.325C543.989 111.465 541.798 106.927 541.798 101.712C541.798 94.3575 544.719 87.3683 550.508 80.6922C556.298 74.016 564.434 68.9045 574.814 65.3578C585.193 61.8111 595.99 59.9856 607.204 59.9856C620.765 59.9856 631.457 62.8542 639.385 68.6437C647.261 74.3811 652.372 80.64 654.719 87.3683C656.128 91.6453 656.858 101.503 656.858 116.837V172.281C656.858 178.801 657.119 182.921 657.64 184.59C658.162 186.259 658.892 187.511 659.935 188.346C660.926 189.18 662.126 189.545 663.43 189.545C666.09 189.545 668.802 187.667 671.514 183.912L676.104 187.563C670.992 195.126 665.725 200.603 660.3 203.993C654.876 207.383 648.669 209.104 641.732 209.104C633.595 209.104 627.232 207.174 622.642 203.367C618.052 199.559 615.236 193.77 614.245 185.998L614.193 186.103ZM614.193 174.941V127.112C601.884 134.362 592.704 142.082 586.706 150.323C582.742 155.799 580.76 161.38 580.76 166.961C580.76 171.655 582.429 175.776 585.819 179.322C588.375 182.087 591.922 183.443 596.511 183.443C601.623 183.443 607.517 180.574 614.245 174.889L614.193 174.941Z" fill="#141717"/>
<path d="M789.647 170.394L794.393 174.045C787.665 186.667 779.268 196.056 769.253 202.262C759.239 208.417 748.547 211.494 737.228 211.494C718.191 211.494 702.961 204.297 691.538 189.953C680.116 175.61 674.431 158.346 674.431 138.161C674.431 117.976 679.646 101.598 690.026 86.8376C702.544 68.9997 719.808 60.0808 741.818 60.0808C756.579 60.0808 768.314 63.784 777.025 71.2425C785.735 78.7011 790.064 86.9941 790.064 96.1739C790.064 101.963 788.291 106.605 784.796 110.1C781.302 113.595 776.66 115.316 770.974 115.316C764.976 115.316 760.021 113.334 756.057 109.37C752.146 105.406 749.694 98.3123 748.807 88.1416C748.182 81.7262 746.721 77.2406 744.374 74.6849C742.027 72.1292 739.263 70.8774 736.133 70.8774C731.23 70.8774 727.058 73.4853 723.615 78.6489C718.295 86.4725 715.687 98.521 715.687 114.69C715.687 128.146 717.826 140.977 722.103 153.286C726.38 165.596 732.221 174.723 739.68 180.721C745.261 185.103 751.885 187.293 759.552 187.293C764.559 187.293 769.253 186.146 773.739 183.799C778.224 181.452 783.544 177.018 789.647 170.498V170.394Z" fill="#141717"/>
<path d="M1134.56 186.103C1117.14 201.489 1101.49 209.156 1087.67 209.156C1079.54 209.156 1072.75 206.496 1067.33 201.124C1061.91 195.752 1059.25 189.076 1059.25 181.043C1059.25 170.143 1063.94 160.337 1073.33 151.627C1082.72 142.916 1103.11 131.337 1134.61 116.837V102.494C1134.61 91.6974 1134.04 84.9169 1132.84 82.1004C1131.69 79.2839 1129.45 76.8325 1126.22 74.7462C1122.93 72.6599 1119.28 71.6167 1115.21 71.6167C1108.59 71.6167 1103.16 73.0771 1098.89 76.0501C1096.23 77.8756 1094.92 80.0141 1094.92 82.4655C1094.92 84.604 1096.33 87.264 1099.2 90.3935C1103.06 94.7747 1104.99 98.9995 1104.99 103.068C1104.99 108.075 1103.11 112.3 1099.41 115.846C1095.7 119.341 1090.8 121.114 1084.8 121.114C1078.39 121.114 1073.02 119.184 1068.69 115.325C1064.36 111.465 1062.17 106.927 1062.17 101.712C1062.17 94.3575 1065.09 87.3683 1070.88 80.6922C1076.67 74.016 1084.8 68.9045 1095.18 65.3578C1105.56 61.8111 1116.36 59.9856 1127.57 59.9856C1141.13 59.9856 1151.83 62.8542 1159.75 68.6437C1167.63 74.3811 1172.74 80.64 1175.09 87.3683C1176.5 91.6453 1177.23 101.503 1177.23 116.837V172.281C1177.23 178.801 1177.49 182.921 1178.01 184.59C1178.53 186.259 1179.26 187.511 1180.3 188.346C1181.29 189.18 1182.49 189.545 1183.8 189.545C1186.46 189.545 1189.17 187.667 1191.88 183.912L1196.47 187.563C1191.36 195.126 1186.09 200.603 1180.67 203.993C1175.24 207.383 1169.04 209.104 1162.1 209.104C1153.96 209.104 1147.6 207.174 1143.01 203.367C1138.42 199.559 1135.6 193.77 1134.61 185.998L1134.56 186.103ZM1134.56 174.941V127.112C1122.25 134.362 1113.07 142.082 1107.07 150.323C1103.11 155.799 1101.13 161.38 1101.13 166.961C1101.13 171.655 1102.8 175.776 1106.19 179.322C1108.74 182.087 1112.29 183.443 1116.88 183.443C1121.99 183.443 1127.89 180.574 1134.61 174.889L1134.56 174.941Z" fill="#141717"/>
<path d="M1252.7 64.3014V96.6913C1262.2 81.9307 1270.49 72.125 1277.64 67.2744C1284.78 62.4237 1291.67 60.0244 1298.29 60.0244C1303.97 60.0244 1308.56 61.7978 1311.95 65.2924C1315.35 68.7869 1317.07 73.7941 1317.07 80.2094C1317.07 87.0421 1315.4 92.31 1312.11 96.1175C1308.83 99.8729 1304.81 101.751 1300.12 101.751C1294.69 101.751 1290.05 100.029 1286.03 96.5348C1282.02 93.0402 1279.72 91.1104 1278.99 90.7453C1277.95 90.1194 1276.8 89.8064 1275.5 89.8064C1272.52 89.8064 1269.76 90.9018 1267.1 93.1445C1262.93 96.5869 1259.75 101.542 1257.61 107.957C1254.32 117.815 1252.7 128.716 1252.7 140.66V173.519L1252.86 182.073C1252.86 187.863 1253.23 191.618 1253.96 193.235C1255.16 195.999 1256.98 197.981 1259.38 199.285C1261.78 200.537 1265.8 201.372 1271.53 201.632V207.109H1194.39V201.632C1200.6 201.111 1204.82 199.442 1207.01 196.521C1209.2 193.6 1210.3 185.933 1210.3 173.519V94.5006C1210.3 86.3641 1209.88 81.1483 1209.1 78.9055C1208.06 76.0368 1206.6 73.9505 1204.67 72.6466C1202.74 71.3427 1199.29 70.4038 1194.44 69.8822V64.2492H1252.81L1252.7 64.3014Z" fill="#141717"/>
<path d="M1452.47 0.000244141V164.401C1452.47 175.511 1452.78 182.083 1453.41 184.117C1454.24 187.455 1455.75 189.958 1458.05 191.627C1460.34 193.296 1464.36 194.287 1470.05 194.705V199.764L1409.7 211.552V188.915C1402.45 197.678 1396.03 203.624 1390.35 206.805C1384.66 209.987 1378.3 211.552 1371.15 211.552C1352.9 211.552 1338.5 203.415 1327.92 187.09C1319.36 173.842 1315.08 157.621 1315.08 138.322C1315.08 122.936 1317.74 109.166 1323.01 97.0134C1328.33 84.8607 1335.58 75.6288 1344.76 69.4221C1353.99 63.2153 1363.9 60.0858 1374.49 60.0858C1381.32 60.0858 1387.38 61.3898 1392.7 64.0498C1398.02 66.7099 1403.65 71.3519 1409.65 77.9759V34.8415C1409.65 23.9406 1409.18 17.3687 1408.29 15.126C1407.09 12.153 1405.21 9.96235 1402.81 8.5541C1400.41 7.14584 1395.77 6.41563 1389.04 6.41563V0.000244141H1452.47ZM1409.65 96.857C1402.08 82.4093 1392.9 75.1594 1382 75.1594C1378.25 75.1594 1375.12 76.2025 1372.67 78.2367C1368.91 81.4183 1365.83 86.947 1363.43 94.875C1361.04 102.803 1359.84 115.008 1359.84 131.385C1359.84 149.432 1361.14 162.784 1363.8 171.442C1366.46 180.101 1370.06 186.359 1374.65 190.219C1377 192.149 1380.18 193.14 1384.3 193.14C1393.27 193.14 1401.72 186.099 1409.65 172.068V96.9091V96.857Z" fill="#141717"/>
<path d="M1019.51 64.3106V69.9436C1025.82 70.1523 1030.25 71.3519 1032.7 73.5947C1035.21 75.8374 1036.46 78.8626 1036.46 82.6179C1036.46 88.6161 1033.43 99.3084 1027.44 114.695L1010.8 157.934L986.336 102.021C981.224 90.598 978.721 82.983 978.721 79.1234C978.721 76.672 979.712 74.5857 981.798 72.8645C983.832 71.1433 987.327 70.1523 992.334 69.9436V64.3106H883.22V69.9436C889.74 70.7781 894.121 72.0821 896.364 73.9076C898.607 75.7331 899.702 78.0281 899.702 80.7924C899.702 83.5568 898.867 86.3733 897.198 89.3463C895.529 92.3192 891.252 97.0656 884.42 103.69L851.247 136.236V0.000244141H793.04V5.63327C799.351 6.46779 803.523 8.18899 805.505 10.849C807.487 13.5091 808.478 20.2374 808.478 31.034V176.189C808.478 187.09 807.592 193.662 805.87 195.904C803.315 199.138 799.038 201.12 793.04 201.694V207.17H866.843V201.694C860.532 200.964 856.359 199.295 854.325 196.582C852.291 193.87 851.247 187.09 851.247 176.189V150.527L860.427 141.504L888.697 182.917C892.974 189.228 895.112 193.557 895.112 195.904C895.112 197.313 894.382 198.669 892.921 199.868C891.461 201.068 889.062 201.694 885.828 201.694V207.17H959.631V201.694C954.311 201.277 949.93 199.347 946.487 195.904C943.932 193.453 935.899 182.239 922.338 162.263L888.697 113.078L904.292 97.7958C906.535 95.6052 908.621 93.571 910.603 91.6934C919.261 83.4525 933.396 85.956 938.768 96.6483C940.437 99.9343 942.106 103.481 943.723 107.132L989.882 213.012L985.449 224.956C979.973 240.238 975.174 249.992 971.106 254.269C968.341 257.242 965.733 258.702 963.334 258.702C961.822 258.702 960.622 258.128 959.84 257.033C959.005 255.938 958.588 253.434 958.484 249.522C958.379 242.69 956.762 237.63 953.685 234.397C950.869 231.476 947.322 229.859 942.888 229.546C937.36 229.181 931.779 231.267 927.971 235.283C924.164 239.299 922.547 244.046 922.547 249.94C922.547 256.772 925.155 262.614 930.423 267.412C935.691 272.263 942.523 274.662 950.973 274.662C961.561 274.662 970.375 270.385 977.417 261.832C982.424 255.729 990.039 239.404 1000.31 212.908L1041.1 107.028C1048.04 88.9812 1052.94 78.4453 1055.91 75.3159C1058.89 72.1864 1062.69 70.413 1067.39 69.8915V64.2584H1019.56L1019.51 64.3106Z" fill="#141717"/>
</svg>
